<?xml version="1.0" encoding="UTF-8"?>
<svg version="1.1" xmlns="http://www.w3.org/2000/svg" xmlns:xlink="http://www.w3.org/1999/xlink">
  <g>
    <path d="M0,0 M10,0 L10,40 M11,0 L11,40 M13,0 L13,40 M16,0 L16,40 M21,0 L21,40 M24,0 L24,40 M25,0 L25,40 M30,0 L30,40 M32,0 L32,40 M35,0 L35,40 M36,0 L36,40 M37,0 L37,40 M38,0 L38,40 M40,0 L40,40 M43,0 L43,40 M46,0 L46,40 M47,0 L47,40 M48,0 L48,40 M49,0 L49,40 M51,0 L51,40 M54,0 L54,40 M56,0 L56,40 M59,0 L59,40 M60,0 L60,40 M61,0 L61,40 M62,0 L62,40 M65,0 L65,40 M67,0 L67,40 M68,0 L68,40 M69,0 L69,40 M70,0 L70,40 M73,0 L73,40 M76,0 L76,40 M77,0 L77,40 M78,0 L78,40 M81,0 L81,40 M84,0 L84,40 M85,0 L85,40 M87,0 L87,40 M89,0 L89,40 M90,0 L90,40 M91,0 L91,40 M94,0 L94,40 M95,0 L95,40 M98,0 L98,40 M100,0 L100,40 M101,0 L101,40 M102,0 L102,40 M105,0 L105,40 M106,0 L106,40 M109,0 L109,40 M110,0 L110,40 M111,0 L111,40 M112,0 L112,40 M114,0 L114,40 M115,0 L115,40 M116,0 L116,40 M118,0 L118,40 M120,0 L120,40 M123,0 L123,40 M124,0 L124,40 M125,0 L125,40 M126,0 L126,40 M129,0 L129,40 M131,0 L131,40 M133,0 L133,40 M134,0 L134,40 M135,0 L135,40 M136,0 L136,40 M139,0 L139,40 M142,0 L142,40 M144,0 L144,40 M145,0 L145,40 M148,0 L148,40 M153,0 L153,40 M156,0 L156,40 M157,0 L157,40 M158,0 L158,40 M159,0 L159,40 M161,0 L161,40 M164,0 L164,40 M167,0 L167,40 M168,0 L168,40 M169,0 L169,40 M170,0 L170,40 M173,0 L173,40 M175,0 L175,40 M178,0 L178,40 M180,0 L180,40 M181,0 L181,40 M186,0 L186,40 M187,0 L187,40 M192,0 L192,40 M194,0 L194,40 M197,0 L197,40 M200,0 L200,40 M201,0 L201,40 M204,0 L204,40 M205,0 L205,40 M206,0 L206,40 M208,0 L208,40 M213,0 L213,40 M215,0 L215,40 M216,0 L216,40 M219,0 L219,40 M223,0 L223,40 M224,0 L224,40 M225,0 L225,40 M226,0 L226,40 M228,0 L228,40 M230,0 L230,40 M231,0 L231,40 M232,0 L232,40 M233,0 L233,40 M235,0 L235,40 M236,0 L236,40 M237,0 L237,40 M239,0 L239,40 M241,0 L241,40 M244,0 L244,40 M246,0 L246,40 M247,0 L247,40 M248,0 L248,40 M249,0 L249,40 M252,0 L252,40 M253,0 L253,40 M257,0 L257,40 M258,0 L258,40 M259,0 L259,40 M261,0 L261,40 M263,0 L263,40 M264,0 L264,40 M274,0" stroke="#333333" ></path>
  </g>
</svg>
